# xmcd CD database file
#
# Track frame offsets:
#	150
#	33372
#	73670
#	97385
#	147677
#	158092
#	192907
#	217405
#
# Disc length: 3397 seconds
#
# Revision: 1
# Processed by: cddbd v1.5.2PL0 Copyright (c) Steve Scherf et al.
# Submitted via: CDex 1.51
#
DISCID=830d4308
DTITLE=Lawton, Tom - Retrospective-Debut Disc 1
DYEAR=2004
DGENRE=Jazz
TTITLE0=Dig the Chartreuse
TTITLE1=FCA
TTITLE2=Grey Matter Doesn't
TTITLE3=Waxing Schachterian
TTITLE4=Donna Lee
TTITLE5=Chrysocolla
TTITLE6=Celestial Prism
TTITLE7=The Norman D Invasion
EXTD=YEAR: 2004
EXTT0=
EXTT1=
EXTT2=
EXTT3=
EXTT4=
EXTT5=
EXTT6=
EXTT7=
PLAYORDER=
